<?xml version="1.0" standalone="no"?>
<!DOCTYPE svg PUBLIC "-//W3C//DTD SVG 20010904//EN"
 "http://www.w3.org/TR/2001/REC-SVG-20010904/DTD/svg10.dtd">
<svg version="1.0" xmlns="http://www.w3.org/2000/svg"
 width="640.000000pt" height="640.000000pt" viewBox="0 0 640.000000 640.000000"
 preserveAspectRatio="xMidYMid meet">
<metadata>
Created by potrace 1.11, written by Peter Selinger 2001-2013
</metadata>
<g transform="translate(0.000000,640.000000) scale(0.100000,-0.100000)"
fill="#000000" stroke="none">
<path d="M2998 6396 c-1 -2 -39 -6 -83 -10 -69 -6 -210 -25 -310 -42 -75 -12
-281 -67 -395 -105 -739 -245 -1379 -765 -1772 -1439 -177 -304 -326 -692
-373 -970 -3 -19 -10 -53 -15 -75 -11 -51 -28 -178 -38 -275 -9 -95 -8 -494 2
-580 8 -71 34 -253 40 -285 38 -181 39 -182 92 -357 89 -292 255 -628 439
-888 165 -232 405 -489 614 -656 111 -88 329 -239 415 -287 239 -131 553 -265
706 -302 8 -2 49 -13 90 -24 41 -11 91 -23 110 -26 19 -3 51 -10 70 -15 35 -9
61 -13 182 -30 133 -19 237 -25 438 -25 211 1 338 9 460 31 14 2 43 7 65 10
281 40 689 183 990 348 73 40 320 196 360 228 459 365 734 690 964 1138 136
266 255 604 295 845 41 244 51 357 51 595 -1 428 -58 738 -211 1142 -246 648
-748 1242 -1356 1604 -378 224 -790 370 -1193 423 -44 6 -100 13 -125 16 -47
7 -506 16 -512 11z"/>
</g>
</svg>
